<svg width="24" height="24" viewBox="0 0 24 24" fill="none" xmlns="http://www.w3.org/2000/svg">
<path d="M22.4273 19.807L21.0094 14.8125V3.9375C21.0094 3.52266 20.6742 3.1875 20.2594 3.1875H3.75935C3.34451 3.1875 3.00935 3.52266 3.00935 3.9375V14.8125L1.59138 19.807C1.4156 20.2969 1.77654 20.8125 2.29685 20.8125H21.7219C22.2422 20.8125 22.6031 20.2969 22.4273 19.807ZM4.69685 4.875H19.3219V14.1328H4.69685V4.875ZM10.0476 19.125L10.2375 18.2578H13.7601L13.95 19.125H10.0476ZM15.2976 19.125L14.85 17.093C14.8312 17.0062 14.7539 16.9453 14.6672 16.9453H9.33279C9.24373 16.9453 9.16873 17.0062 9.14998 17.093L8.70232 19.125H3.53904L4.53045 15.6328H19.4883L20.4797 19.125H15.2976Z" fill="black"/>
</svg>
