<svg width="115" height="115" viewBox="0 0 115 115" fill="none" xmlns="http://www.w3.org/2000/svg">
<g clip-path="url(#clip0_734_4638)">
<path d="M35.9375 0C36.8906 0 37.8047 0.378626 38.4787 1.05259C39.1526 1.72654 39.5312 2.64063 39.5312 3.59375V14.375H46.7188V3.59375C46.7188 2.64063 47.0974 1.72654 47.7713 1.05259C48.4453 0.378626 49.3594 0 50.3125 0C51.2656 0 52.1797 0.378626 52.8537 1.05259C53.5276 1.72654 53.9062 2.64063 53.9062 3.59375V14.375H61.0938V3.59375C61.0938 2.64063 61.4724 1.72654 62.1463 1.05259C62.8203 0.378626 63.7344 0 64.6875 0C65.6406 0 66.5547 0.378626 67.2287 1.05259C67.9026 1.72654 68.2812 2.64063 68.2812 3.59375V14.375H75.4688V3.59375C75.4688 2.64063 75.8474 1.72654 76.5213 1.05259C77.1953 0.378626 78.1094 0 79.0625 0C80.0156 0 80.9297 0.378626 81.6037 1.05259C82.2776 1.72654 82.6562 2.64063 82.6562 3.59375V14.375C87.4219 14.375 91.9923 16.2681 95.3621 19.6379C98.7319 23.0077 100.625 27.5781 100.625 32.3438H111.406C112.359 32.3438 113.273 32.7224 113.947 33.3963C114.621 34.0703 115 34.9844 115 35.9375C115 36.8906 114.621 37.8047 113.947 38.4787C113.273 39.1526 112.359 39.5312 111.406 39.5312H100.625V46.7188H111.406C112.359 46.7188 113.273 47.0974 113.947 47.7713C114.621 48.4453 115 49.3594 115 50.3125C115 51.2656 114.621 52.1797 113.947 52.8537C113.273 53.5276 112.359 53.9062 111.406 53.9062H100.625V61.0938H111.406C112.359 61.0938 113.273 61.4724 113.947 62.1463C114.621 62.8203 115 63.7344 115 64.6875C115 65.6406 114.621 66.5547 113.947 67.2287C113.273 67.9026 112.359 68.2812 111.406 68.2812H100.625V75.4688H111.406C112.359 75.4688 113.273 75.8474 113.947 76.5213C114.621 77.1953 115 78.1094 115 79.0625C115 80.0156 114.621 80.9297 113.947 81.6037C113.273 82.2776 112.359 82.6562 111.406 82.6562H100.625C100.625 87.4219 98.7319 91.9923 95.3621 95.3621C91.9923 98.7319 87.4219 100.625 82.6562 100.625V111.406C82.6562 112.359 82.2776 113.273 81.6037 113.947C80.9297 114.621 80.0156 115 79.0625 115C78.1094 115 77.1953 114.621 76.5213 113.947C75.8474 113.273 75.4688 112.359 75.4688 111.406V100.625H68.2812V111.406C68.2812 112.359 67.9026 113.273 67.2287 113.947C66.5547 114.621 65.6406 115 64.6875 115C63.7344 115 62.8203 114.621 62.1463 113.947C61.4724 113.273 61.0938 112.359 61.0938 111.406V100.625H53.9062V111.406C53.9062 112.359 53.5276 113.273 52.8537 113.947C52.1797 114.621 51.2656 115 50.3125 115C49.3594 115 48.4453 114.621 47.7713 113.947C47.0974 113.273 46.7188 112.359 46.7188 111.406V100.625H39.5312V111.406C39.5312 112.359 39.1526 113.273 38.4787 113.947C37.8047 114.621 36.8906 115 35.9375 115C34.9844 115 34.0703 114.621 33.3963 113.947C32.7224 113.273 32.3438 112.359 32.3438 111.406V100.625C27.5781 100.625 23.0077 98.7319 19.6379 95.3621C16.2681 91.9923 14.375 87.4219 14.375 82.6562H3.59375C2.64063 82.6562 1.72654 82.2776 1.05259 81.6037C0.378626 80.9297 0 80.0156 0 79.0625C0 78.1094 0.378626 77.1953 1.05259 76.5213C1.72654 75.8474 2.64063 75.4688 3.59375 75.4688H14.375V68.2812H3.59375C2.64063 68.2812 1.72654 67.9026 1.05259 67.2287C0.378626 66.5547 0 65.6406 0 64.6875C0 63.7344 0.378626 62.8203 1.05259 62.1463C1.72654 61.4724 2.64063 61.0938 3.59375 61.0938H14.375V53.9062H3.59375C2.64063 53.9062 1.72654 53.5276 1.05259 52.8537C0.378626 52.1797 0 51.2656 0 50.3125C0 49.3594 0.378626 48.4453 1.05259 47.7713C1.72654 47.0974 2.64063 46.7188 3.59375 46.7188H14.375V39.5312H3.59375C2.64063 39.5312 1.72654 39.1526 1.05259 38.4787C0.378626 37.8047 0 36.8906 0 35.9375C0 34.9844 0.378626 34.0703 1.05259 33.3963C1.72654 32.7224 2.64063 32.3438 3.59375 32.3438H14.375C14.375 27.5781 16.2681 23.0077 19.6379 19.6379C23.0077 16.2681 27.5781 14.375 32.3438 14.375V3.59375C32.3438 2.64063 32.7224 1.72654 33.3963 1.05259C34.0703 0.378626 34.9844 0 35.9375 0ZM32.3438 21.5625C29.4844 21.5625 26.7421 22.6984 24.7203 24.7203C22.6984 26.7421 21.5625 29.4844 21.5625 32.3438V82.6562C21.5625 85.5156 22.6984 88.2579 24.7203 90.2797C26.7421 92.3016 29.4844 93.4375 32.3438 93.4375H82.6562C85.5156 93.4375 88.2579 92.3016 90.2797 90.2797C92.3016 88.2579 93.4375 85.5156 93.4375 82.6562V32.3438C93.4375 29.4844 92.3016 26.7421 90.2797 24.7203C88.2579 22.6984 85.5156 21.5625 82.6562 21.5625H32.3438ZM35.9375 46.7188C35.9375 43.8594 37.0734 41.1171 39.0953 39.0953C41.1171 37.0734 43.8594 35.9375 46.7188 35.9375H68.2812C71.1406 35.9375 73.8829 37.0734 75.9047 39.0953C77.9266 41.1171 79.0625 43.8594 79.0625 46.7188V68.2812C79.0625 71.1406 77.9266 73.8829 75.9047 75.9047C73.8829 77.9266 71.1406 79.0625 68.2812 79.0625H46.7188C43.8594 79.0625 41.1171 77.9266 39.0953 75.9047C37.0734 73.8829 35.9375 71.1406 35.9375 68.2812V46.7188ZM46.7188 43.125C45.7656 43.125 44.8515 43.5036 44.1776 44.1776C43.5036 44.8515 43.125 45.7656 43.125 46.7188V68.2812C43.125 69.2344 43.5036 70.1485 44.1776 70.8224C44.8515 71.4964 45.7656 71.875 46.7188 71.875H68.2812C69.2344 71.875 70.1485 71.4964 70.8224 70.8224C71.4964 70.1485 71.875 69.2344 71.875 68.2812V46.7188C71.875 45.7656 71.4964 44.8515 70.8224 44.1776C70.1485 43.5036 69.2344 43.125 68.2812 43.125H46.7188Z" fill="#0178FA"/>
<g clip-path="url(#clip1_734_4638)">
<path d="M35.9375 0C36.8906 0 37.8047 0.378626 38.4787 1.05259C39.1526 1.72654 39.5312 2.64063 39.5312 3.59375V14.375H46.7188V3.59375C46.7188 2.64063 47.0974 1.72654 47.7713 1.05259C48.4453 0.378626 49.3594 0 50.3125 0C51.2656 0 52.1797 0.378626 52.8537 1.05259C53.5276 1.72654 53.9062 2.64063 53.9062 3.59375V14.375H61.0938V3.59375C61.0938 2.64063 61.4724 1.72654 62.1463 1.05259C62.8203 0.378626 63.7344 0 64.6875 0C65.6406 0 66.5547 0.378626 67.2287 1.05259C67.9026 1.72654 68.2812 2.64063 68.2812 3.59375V14.375H75.4688V3.59375C75.4688 2.64063 75.8474 1.72654 76.5213 1.05259C77.1953 0.378626 78.1094 0 79.0625 0C80.0156 0 80.9297 0.378626 81.6037 1.05259C82.2776 1.72654 82.6562 2.64063 82.6562 3.59375V14.375C87.4219 14.375 91.9923 16.2681 95.3621 19.6379C98.7319 23.0077 100.625 27.5781 100.625 32.3438H111.406C112.359 32.3438 113.273 32.7224 113.947 33.3963C114.621 34.0703 115 34.9844 115 35.9375C115 36.8906 114.621 37.8047 113.947 38.4787C113.273 39.1526 112.359 39.5312 111.406 39.5312H100.625V46.7188H111.406C112.359 46.7188 113.273 47.0974 113.947 47.7713C114.621 48.4453 115 49.3594 115 50.3125C115 51.2656 114.621 52.1797 113.947 52.8537C113.273 53.5276 112.359 53.9062 111.406 53.9062H100.625V61.0938H111.406C112.359 61.0938 113.273 61.4724 113.947 62.1463C114.621 62.8203 115 63.7344 115 64.6875C115 65.6406 114.621 66.5547 113.947 67.2287C113.273 67.9026 112.359 68.2812 111.406 68.2812H100.625V75.4688H111.406C112.359 75.4688 113.273 75.8474 113.947 76.5213C114.621 77.1953 115 78.1094 115 79.0625C115 80.0156 114.621 80.9297 113.947 81.6037C113.273 82.2776 112.359 82.6562 111.406 82.6562H100.625C100.625 87.4219 98.7319 91.9923 95.3621 95.3621C91.9923 98.7319 87.4219 100.625 82.6562 100.625V111.406C82.6562 112.359 82.2776 113.273 81.6037 113.947C80.9297 114.621 80.0156 115 79.0625 115C78.1094 115 77.1953 114.621 76.5213 113.947C75.8474 113.273 75.4688 112.359 75.4688 111.406V100.625H68.2812V111.406C68.2812 112.359 67.9026 113.273 67.2287 113.947C66.5547 114.621 65.6406 115 64.6875 115C63.7344 115 62.8203 114.621 62.1463 113.947C61.4724 113.273 61.0938 112.359 61.0938 111.406V100.625H53.9062V111.406C53.9062 112.359 53.5276 113.273 52.8537 113.947C52.1797 114.621 51.2656 115 50.3125 115C49.3594 115 48.4453 114.621 47.7713 113.947C47.0974 113.273 46.7188 112.359 46.7188 111.406V100.625H39.5312V111.406C39.5312 112.359 39.1526 113.273 38.4787 113.947C37.8047 114.621 36.8906 115 35.9375 115C34.9844 115 34.0703 114.621 33.3963 113.947C32.7224 113.273 32.3438 112.359 32.3438 111.406V100.625C27.5781 100.625 23.0077 98.7319 19.6379 95.3621C16.2681 91.9923 14.375 87.4219 14.375 82.6562H3.59375C2.64063 82.6562 1.72654 82.2776 1.05259 81.6037C0.378626 80.9297 0 80.0156 0 79.0625C0 78.1094 0.378626 77.1953 1.05259 76.5213C1.72654 75.8474 2.64063 75.4688 3.59375 75.4688H14.375V68.2812H3.59375C2.64063 68.2812 1.72654 67.9026 1.05259 67.2287C0.378626 66.5547 0 65.6406 0 64.6875C0 63.7344 0.378626 62.8203 1.05259 62.1463C1.72654 61.4724 2.64063 61.0938 3.59375 61.0938H14.375V53.9062H3.59375C2.64063 53.9062 1.72654 53.5276 1.05259 52.8537C0.378626 52.1797 0 51.2656 0 50.3125C0 49.3594 0.378626 48.4453 1.05259 47.7713C1.72654 47.0974 2.64063 46.7188 3.59375 46.7188H14.375V39.5312H3.59375C2.64063 39.5312 1.72654 39.1526 1.05259 38.4787C0.378626 37.8047 0 36.8906 0 35.9375C0 34.9844 0.378626 34.0703 1.05259 33.3963C1.72654 32.7224 2.64063 32.3438 3.59375 32.3438H14.375C14.375 27.5781 16.2681 23.0077 19.6379 19.6379C23.0077 16.2681 27.5781 14.375 32.3438 14.375V3.59375C32.3438 2.64063 32.7224 1.72654 33.3963 1.05259C34.0703 0.378626 34.9844 0 35.9375 0ZM32.3438 21.5625C29.4844 21.5625 26.7421 22.6984 24.7203 24.7203C22.6984 26.7421 21.5625 29.4844 21.5625 32.3438V82.6562C21.5625 85.5156 22.6984 88.2579 24.7203 90.2797C26.7421 92.3016 29.4844 93.4375 32.3438 93.4375H82.6562C85.5156 93.4375 88.2579 92.3016 90.2797 90.2797C92.3016 88.2579 93.4375 85.5156 93.4375 82.6562V32.3438C93.4375 29.4844 92.3016 26.7421 90.2797 24.7203C88.2579 22.6984 85.5156 21.5625 82.6562 21.5625H32.3438ZM35.9375 46.7188C35.9375 43.8594 37.0734 41.1171 39.0953 39.0953C41.1171 37.0734 43.8594 35.9375 46.7188 35.9375H68.2812C71.1406 35.9375 73.8829 37.0734 75.9047 39.0953C77.9266 41.1171 79.0625 43.8594 79.0625 46.7188V68.2812C79.0625 71.1406 77.9266 73.8829 75.9047 75.9047C73.8829 77.9266 71.1406 79.0625 68.2812 79.0625H46.7188C43.8594 79.0625 41.1171 77.9266 39.0953 75.9047C37.0734 73.8829 35.9375 71.1406 35.9375 68.2812V46.7188ZM46.7188 43.125C45.7656 43.125 44.8515 43.5036 44.1776 44.1776C43.5036 44.8515 43.125 45.7656 43.125 46.7188V68.2812C43.125 69.2344 43.5036 70.1485 44.1776 70.8224C44.8515 71.4964 45.7656 71.875 46.7188 71.875H68.2812C69.2344 71.875 70.1485 71.4964 70.8224 70.8224C71.4964 70.1485 71.875 69.2344 71.875 68.2812V46.7188C71.875 45.7656 71.4964 44.8515 70.8224 44.1776C70.1485 43.5036 69.2344 43.125 68.2812 43.125H46.7188Z" fill="#013C7D"/>
</g>
</g>
<defs>
<clipPath id="clip0_734_4638">
<rect width="115" height="115" fill="white"/>
</clipPath>
<clipPath id="clip1_734_4638">
<rect width="45" height="45" fill="white" transform="translate(35 35)"/>
</clipPath>
</defs>
</svg>
