<svg width="19" height="18" viewBox="0 0 19 18" fill="none" xmlns="http://www.w3.org/2000/svg">
<g clip-path="url(#clip0_209_730)">
<path d="M5 9C5 8.77839 5.04365 8.55896 5.12845 8.35422C5.21326 8.14948 5.33756 7.96346 5.49426 7.80676C5.65096 7.65006 5.83698 7.52576 6.04172 7.44095C6.24646 7.35615 6.46589 7.3125 6.6875 7.3125C6.90911 7.3125 7.12854 7.35615 7.33328 7.44095C7.53802 7.52576 7.72404 7.65006 7.88074 7.80676C8.03744 7.96346 8.16174 8.14948 8.24655 8.35422C8.33135 8.55896 8.375 8.77839 8.375 9C8.375 9.44755 8.19721 9.87678 7.88074 10.1932C7.56428 10.5097 7.13505 10.6875 6.6875 10.6875C6.23995 10.6875 5.81072 10.5097 5.49426 10.1932C5.17779 9.87678 5 9.44755 5 9ZM13.4375 7.3125C12.9899 7.3125 12.5607 7.49029 12.2443 7.80676C11.9278 8.12322 11.75 8.55245 11.75 9C11.75 9.44755 11.9278 9.87678 12.2443 10.1932C12.5607 10.5097 12.9899 10.6875 13.4375 10.6875C13.8851 10.6875 14.3143 10.5097 14.6307 10.1932C14.9472 9.87678 15.125 9.44755 15.125 9C15.125 8.55245 14.9472 8.12322 14.6307 7.80676C14.3143 7.49029 13.8851 7.3125 13.4375 7.3125Z" fill="#0C0C0C"/>
<path d="M0.5 1.6875C0.5 1.53832 0.559263 1.39524 0.664752 1.28975C0.770242 1.18426 0.913316 1.125 1.0625 1.125H2.1875C2.33668 1.125 2.47976 1.18426 2.58525 1.28975C2.69074 1.39524 2.75 1.53832 2.75 1.6875V4.5H17.9375C18.0867 4.5 18.2298 4.55926 18.3352 4.66475C18.4407 4.77024 18.5 4.91332 18.5 5.0625V12.9375C18.5 13.0867 18.4407 13.2298 18.3352 13.3352C18.2298 13.4407 18.0867 13.5 17.9375 13.5H2.75V16.3125C2.75 16.4617 2.69074 16.6048 2.58525 16.7102C2.47976 16.8157 2.33668 16.875 2.1875 16.875C2.03832 16.875 1.89524 16.8157 1.78975 16.7102C1.68426 16.6048 1.625 16.4617 1.625 16.3125V2.25H1.0625C0.913316 2.25 0.770242 2.19074 0.664752 2.08525C0.559263 1.97976 0.5 1.83668 0.5 1.6875ZM6.6875 6.1875C5.94158 6.1875 5.22621 6.48382 4.69876 7.01126C4.17132 7.53871 3.875 8.25408 3.875 9C3.875 9.74592 4.17132 10.4613 4.69876 10.9887C5.22621 11.5162 5.94158 11.8125 6.6875 11.8125C7.43342 11.8125 8.14879 11.5162 8.67624 10.9887C9.20368 10.4613 9.5 9.74592 9.5 9C9.5 8.25408 9.20368 7.53871 8.67624 7.01126C8.14879 6.48382 7.43342 6.1875 6.6875 6.1875ZM10.625 9C10.625 9.74592 10.9213 10.4613 11.4488 10.9887C11.9762 11.5162 12.6916 11.8125 13.4375 11.8125C14.1834 11.8125 14.8988 11.5162 15.4262 10.9887C15.9537 10.4613 16.25 9.74592 16.25 9C16.25 8.25408 15.9537 7.53871 15.4262 7.01126C14.8988 6.48382 14.1834 6.1875 13.4375 6.1875C12.6916 6.1875 11.9762 6.48382 11.4488 7.01126C10.9213 7.53871 10.625 8.25408 10.625 9Z" fill="#0C0C0C"/>
<path d="M3.875 14.0625H7.8125V15.1875C7.8125 15.3367 7.75324 15.4798 7.64775 15.5852C7.54226 15.6907 7.39918 15.75 7.25 15.75H4.4375C4.28832 15.75 4.14524 15.6907 4.03975 15.5852C3.93426 15.4798 3.875 15.3367 3.875 15.1875V14.0625ZM8.375 15.1875V14.0625H12.875V15.1875C12.875 15.3367 12.8157 15.4798 12.7102 15.5852C12.6048 15.6907 12.4617 15.75 12.3125 15.75H8.9375C8.78832 15.75 8.64524 15.6907 8.53975 15.5852C8.43426 15.4798 8.375 15.3367 8.375 15.1875Z" fill="#0C0C0C"/>
</g>
<defs>
<clipPath id="clip0_209_730">
<rect width="18" height="18" fill="white" transform="translate(0.5)"/>
</clipPath>
</defs>
</svg>
