<svg width="167" height="167" viewBox="0 0 167 167" fill="none" xmlns="http://www.w3.org/2000/svg">
<g clip-path="url(#clip0_734_4647)">
<path d="M146.125 52.1875C148.893 52.1875 151.548 53.2872 153.505 55.2446C155.463 57.202 156.562 59.8568 156.562 62.625V114.812C156.562 117.581 155.463 120.236 153.505 122.193C151.548 124.15 148.893 125.25 146.125 125.25H20.875C18.1068 125.25 15.452 124.15 13.4946 122.193C11.5372 120.236 10.4375 117.581 10.4375 114.812V62.625C10.4375 59.8568 11.5372 57.202 13.4946 55.2446C15.452 53.2872 18.1068 52.1875 20.875 52.1875H146.125ZM20.875 41.75C15.3386 41.75 10.029 43.9493 6.11415 47.8641C2.19932 51.779 0 57.0886 0 62.625L0 114.812C0 120.349 2.19932 125.659 6.11415 129.573C10.029 133.488 15.3386 135.688 20.875 135.688H146.125C151.661 135.688 156.971 133.488 160.886 129.573C164.801 125.659 167 120.349 167 114.812V62.625C167 57.0886 164.801 51.779 160.886 47.8641C156.971 43.9493 151.661 41.75 146.125 41.75H20.875Z" fill="#0178FA"/>
<path d="M135.688 106.984C135.688 106.292 135.962 105.629 136.452 105.139C136.941 104.65 137.605 104.375 138.297 104.375H143.516C144.208 104.375 144.871 104.65 145.361 105.139C145.85 105.629 146.125 106.292 146.125 106.984V112.203C146.125 112.895 145.85 113.559 145.361 114.048C144.871 114.538 144.208 114.812 143.516 114.812H138.297C137.605 114.812 136.941 114.538 136.452 114.048C135.962 113.559 135.688 112.895 135.688 112.203V106.984ZM135.688 86.1094C135.688 85.4173 135.962 84.7536 136.452 84.2643C136.941 83.7749 137.605 83.5 138.297 83.5H143.516C144.208 83.5 144.871 83.7749 145.361 84.2643C145.85 84.7536 146.125 85.4173 146.125 86.1094V91.3281C146.125 92.0202 145.85 92.6839 145.361 93.1732C144.871 93.6626 144.208 93.9375 143.516 93.9375H138.297C137.605 93.9375 136.941 93.6626 136.452 93.1732C135.962 92.6839 135.688 92.0202 135.688 91.3281V86.1094ZM83.5 86.1094C83.5 85.4173 83.7749 84.7536 84.2643 84.2643C84.7536 83.7749 85.4173 83.5 86.1094 83.5H91.3281C92.0202 83.5 92.6839 83.7749 93.1732 84.2643C93.6626 84.7536 93.9375 85.4173 93.9375 86.1094V91.3281C93.9375 92.0202 93.6626 92.6839 93.1732 93.1732C92.6839 93.6626 92.0202 93.9375 91.3281 93.9375H86.1094C85.4173 93.9375 84.7536 93.6626 84.2643 93.1732C83.7749 92.6839 83.5 92.0202 83.5 91.3281V86.1094ZM104.375 86.1094C104.375 85.4173 104.65 84.7536 105.139 84.2643C105.629 83.7749 106.292 83.5 106.984 83.5H122.641C123.333 83.5 123.996 83.7749 124.486 84.2643C124.975 84.7536 125.25 85.4173 125.25 86.1094V91.3281C125.25 92.0202 124.975 92.6839 124.486 93.1732C123.996 93.6626 123.333 93.9375 122.641 93.9375H106.984C106.292 93.9375 105.629 93.6626 105.139 93.1732C104.65 92.6839 104.375 92.0202 104.375 91.3281V86.1094ZM114.812 106.984C114.812 106.292 115.087 105.629 115.577 105.139C116.066 104.65 116.73 104.375 117.422 104.375H122.641C123.333 104.375 123.996 104.65 124.486 105.139C124.975 105.629 125.25 106.292 125.25 106.984V112.203C125.25 112.895 124.975 113.559 124.486 114.048C123.996 114.538 123.333 114.812 122.641 114.812H117.422C116.73 114.812 116.066 114.538 115.577 114.048C115.087 113.559 114.812 112.895 114.812 112.203V106.984ZM62.625 86.1094C62.625 85.4173 62.8999 84.7536 63.3893 84.2643C63.8786 83.7749 64.5423 83.5 65.2344 83.5H70.4531C71.1452 83.5 71.8089 83.7749 72.2982 84.2643C72.7876 84.7536 73.0625 85.4173 73.0625 86.1094V91.3281C73.0625 92.0202 72.7876 92.6839 72.2982 93.1732C71.8089 93.6626 71.1452 93.9375 70.4531 93.9375H65.2344C64.5423 93.9375 63.8786 93.6626 63.3893 93.1732C62.8999 92.6839 62.625 92.0202 62.625 91.3281V86.1094ZM41.75 86.1094C41.75 85.4173 42.0249 84.7536 42.5143 84.2643C43.0036 83.7749 43.6673 83.5 44.3594 83.5H49.5781C50.2702 83.5 50.9339 83.7749 51.4232 84.2643C51.9126 84.7536 52.1875 85.4173 52.1875 86.1094V91.3281C52.1875 92.0202 51.9126 92.6839 51.4232 93.1732C50.9339 93.6626 50.2702 93.9375 49.5781 93.9375H44.3594C43.6673 93.9375 43.0036 93.6626 42.5143 93.1732C42.0249 92.6839 41.75 92.0202 41.75 91.3281V86.1094ZM20.875 86.1094C20.875 85.4173 21.1499 84.7536 21.6393 84.2643C22.1286 83.7749 22.7923 83.5 23.4844 83.5H28.7031C29.3952 83.5 30.0589 83.7749 30.5482 84.2643C31.0376 84.7536 31.3125 85.4173 31.3125 86.1094V91.3281C31.3125 92.0202 31.0376 92.6839 30.5482 93.1732C30.0589 93.6626 29.3952 93.9375 28.7031 93.9375H23.4844C22.7923 93.9375 22.1286 93.6626 21.6393 93.1732C21.1499 92.6839 20.875 92.0202 20.875 91.3281V86.1094ZM135.688 65.2344C135.688 64.5423 135.962 63.8786 136.452 63.3893C136.941 62.8999 137.605 62.625 138.297 62.625H143.516C144.208 62.625 144.871 62.8999 145.361 63.3893C145.85 63.8786 146.125 64.5423 146.125 65.2344V70.4531C146.125 71.1452 145.85 71.8089 145.361 72.2982C144.871 72.7876 144.208 73.0625 143.516 73.0625H138.297C137.605 73.0625 136.941 72.7876 136.452 72.2982C135.962 71.8089 135.688 71.1452 135.688 70.4531V65.2344ZM114.812 65.2344C114.812 64.5423 115.087 63.8786 115.577 63.3893C116.066 62.8999 116.73 62.625 117.422 62.625H122.641C123.333 62.625 123.996 62.8999 124.486 63.3893C124.975 63.8786 125.25 64.5423 125.25 65.2344V70.4531C125.25 71.1452 124.975 71.8089 124.486 72.2982C123.996 72.7876 123.333 73.0625 122.641 73.0625H117.422C116.73 73.0625 116.066 72.7876 115.577 72.2982C115.087 71.8089 114.812 71.1452 114.812 70.4531V65.2344ZM93.9375 65.2344C93.9375 64.5423 94.2124 63.8786 94.7018 63.3893C95.1911 62.8999 95.8548 62.625 96.5469 62.625H101.766C102.458 62.625 103.121 62.8999 103.611 63.3893C104.1 63.8786 104.375 64.5423 104.375 65.2344V70.4531C104.375 71.1452 104.1 71.8089 103.611 72.2982C103.121 72.7876 102.458 73.0625 101.766 73.0625H96.5469C95.8548 73.0625 95.1911 72.7876 94.7018 72.2982C94.2124 71.8089 93.9375 71.1452 93.9375 70.4531V65.2344ZM73.0625 65.2344C73.0625 64.5423 73.3374 63.8786 73.8268 63.3893C74.3161 62.8999 74.9798 62.625 75.6719 62.625H80.8906C81.5827 62.625 82.2464 62.8999 82.7357 63.3893C83.2251 63.8786 83.5 64.5423 83.5 65.2344V70.4531C83.5 71.1452 83.2251 71.8089 82.7357 72.2982C82.2464 72.7876 81.5827 73.0625 80.8906 73.0625H75.6719C74.9798 73.0625 74.3161 72.7876 73.8268 72.2982C73.3374 71.8089 73.0625 71.1452 73.0625 70.4531V65.2344ZM52.1875 65.2344C52.1875 64.5423 52.4624 63.8786 52.9518 63.3893C53.4411 62.8999 54.1048 62.625 54.7969 62.625H60.0156C60.7077 62.625 61.3714 62.8999 61.8607 63.3893C62.3501 63.8786 62.625 64.5423 62.625 65.2344V70.4531C62.625 71.1452 62.3501 71.8089 61.8607 72.2982C61.3714 72.7876 60.7077 73.0625 60.0156 73.0625H54.7969C54.1048 73.0625 53.4411 72.7876 52.9518 72.2982C52.4624 71.8089 52.1875 71.1452 52.1875 70.4531V65.2344ZM20.875 65.2344C20.875 64.5423 21.1499 63.8786 21.6393 63.3893C22.1286 62.8999 22.7923 62.625 23.4844 62.625H39.1406C39.8327 62.625 40.4964 62.8999 40.9857 63.3893C41.4751 63.8786 41.75 64.5423 41.75 65.2344V70.4531C41.75 71.1452 41.4751 71.8089 40.9857 72.2982C40.4964 72.7876 39.8327 73.0625 39.1406 73.0625H23.4844C22.7923 73.0625 22.1286 72.7876 21.6393 72.2982C21.1499 71.8089 20.875 71.1452 20.875 70.4531V65.2344ZM20.875 106.984C20.875 106.292 21.1499 105.629 21.6393 105.139C22.1286 104.65 22.7923 104.375 23.4844 104.375H28.7031C29.3952 104.375 30.0589 104.65 30.5482 105.139C31.0376 105.629 31.3125 106.292 31.3125 106.984V112.203C31.3125 112.895 31.0376 113.559 30.5482 114.048C30.0589 114.538 29.3952 114.812 28.7031 114.812H23.4844C22.7923 114.812 22.1286 114.538 21.6393 114.048C21.1499 113.559 20.875 112.895 20.875 112.203V106.984ZM41.75 106.984C41.75 106.292 42.0249 105.629 42.5143 105.139C43.0036 104.65 43.6673 104.375 44.3594 104.375H101.766C102.458 104.375 103.121 104.65 103.611 105.139C104.1 105.629 104.375 106.292 104.375 106.984V112.203C104.375 112.895 104.1 113.559 103.611 114.048C103.121 114.538 102.458 114.812 101.766 114.812H44.3594C43.6673 114.812 43.0036 114.538 42.5143 114.048C42.0249 113.559 41.75 112.895 41.75 112.203V106.984Z" fill="#013C7D"/>
</g>
<defs>
<clipPath id="clip0_734_4647">
<rect width="167" height="167" fill="white"/>
</clipPath>
</defs>
</svg>
