<svg width="24" height="24" viewBox="0 0 24 24" fill="none" xmlns="http://www.w3.org/2000/svg">
<g clip-path="url(#clip0_1703_1030)">
<path d="M8.25 4.50183C7.83579 4.50183 7.5 4.83761 7.5 5.25183C7.5 5.66604 7.83579 6.00183 8.25 6.00183H20.75C21.3023 6.00183 21.75 6.44954 21.75 7.00183V8.81729C21.75 8.91925 21.7344 9.0206 21.7038 9.11784L20.3063 13.5524C20.1752 13.9687 19.7891 14.2518 19.3526 14.2518H7.89879C7.39965 14.2518 6.97695 13.8838 6.90829 13.3894L5.27283 1.61245C5.20417 1.11806 4.78147 0.75 4.28234 0.75H1.5C1.08579 0.75 0.75 1.08579 0.75 1.5C0.75 1.91421 1.08579 2.25 1.5 2.25H2.97621C3.47535 2.25 3.89805 2.61806 3.96671 3.11245L5.60217 14.8894C5.67083 15.3838 6.09353 15.7518 6.59266 15.7518H20.4526C20.8891 15.7518 21.2752 15.4687 21.4064 15.0524L23.2038 9.34856C23.2344 9.25132 23.25 9.14997 23.25 9.04801V5.50183C23.25 4.94954 22.8023 4.50183 22.25 4.50183H8.25ZM8.29612 17.2661C7.50075 17.267 6.73822 17.5834 6.17581 18.1458C5.61339 18.7082 5.29703 19.4708 5.29612 20.2661C5.29612 21.0618 5.6122 21.8248 6.1748 22.3874C6.73741 22.9501 7.50047 23.2661 8.29612 23.2661C9.09177 23.2661 9.85484 22.9501 10.4174 22.3874C10.9801 21.8248 11.2961 21.0618 11.2961 20.2661C11.2952 19.4707 10.9789 18.7082 10.4165 18.1458C9.85404 17.5834 9.0915 17.267 8.29612 17.2661ZM8.29612 21.7661C7.99945 21.7661 7.70944 21.6781 7.46277 21.5133C7.2161 21.3485 7.02384 21.1142 6.91031 20.8401C6.79677 20.5661 6.76707 20.2645 6.82495 19.9735C6.88283 19.6825 7.02569 19.4152 7.23547 19.2055C7.44524 18.9957 7.71252 18.8528 8.00349 18.7949C8.29446 18.7371 8.59606 18.7668 8.87015 18.8803C9.14424 18.9938 9.37851 19.1861 9.54333 19.4328C9.70815 19.6794 9.79612 19.9694 9.79612 20.2661C9.79565 20.6638 9.63747 21.0451 9.35626 21.3263C9.07506 21.6075 8.6938 21.7657 8.29612 21.7661ZM18.7961 17.2661C18.0008 17.267 17.2382 17.5834 16.6758 18.1458C16.1134 18.7082 15.797 19.4708 15.7961 20.2661C15.7961 21.0618 16.1122 21.8248 16.6748 22.3874C17.2374 22.9501 18.0005 23.2661 18.7961 23.2661C19.5918 23.2661 20.3548 22.9501 20.9174 22.3874C21.4801 21.8248 21.7961 21.0618 21.7961 20.2661C21.7952 19.4707 21.4789 18.7082 20.9165 18.1458C20.354 17.5834 19.5915 17.267 18.7961 17.2661ZM18.7961 21.7661C18.4995 21.7661 18.2094 21.6781 17.9628 21.5133C17.7161 21.3485 17.5238 21.1142 17.4103 20.8401C17.2968 20.5661 17.2671 20.2645 17.3249 19.9735C17.3828 19.6825 17.5257 19.4152 17.7355 19.2055C17.9452 18.9957 18.2125 18.8528 18.5035 18.7949C18.7945 18.7371 19.0961 18.7668 19.3701 18.8803C19.6442 18.9938 19.8785 19.1861 20.0433 19.4328C20.2082 19.6794 20.2961 19.9694 20.2961 20.2661C20.2957 20.6638 20.1375 21.0451 19.8563 21.3263C19.5751 21.6075 19.1938 21.7657 18.7961 21.7661Z" fill="#0178FA"/>
</g>
<defs>
<clipPath id="clip0_1703_1030">
<rect width="24" height="24" fill="white"/>
</clipPath>
</defs>
</svg>
