<svg width="142" height="126" viewBox="0 0 142 126" fill="none" xmlns="http://www.w3.org/2000/svg">
<path d="M35.5 63C35.5 61.2518 35.8443 59.5207 36.5134 57.9055C37.1824 56.2904 38.163 54.8228 39.3991 53.5866C40.6353 52.3505 42.1029 51.3699 43.718 50.7009C45.3332 50.0318 47.0643 49.6875 48.8125 49.6875C50.5607 49.6875 52.2918 50.0318 53.907 50.7009C55.5221 51.3699 56.9897 52.3505 58.2259 53.5866C59.462 54.8228 60.4426 56.2904 61.1116 57.9055C61.7807 59.5207 62.125 61.2518 62.125 63C62.125 66.5307 60.7224 69.9168 58.2259 72.4134C55.7293 74.9099 52.3432 76.3125 48.8125 76.3125C45.2818 76.3125 41.8957 74.9099 39.3991 72.4134C36.9026 69.9168 35.5 66.5307 35.5 63ZM102.062 49.6875C98.5318 49.6875 95.1457 51.0901 92.6491 53.5866C90.1526 56.0832 88.75 59.4693 88.75 63C88.75 66.5307 90.1526 69.9168 92.6491 72.4134C95.1457 74.9099 98.5318 76.3125 102.062 76.3125C105.593 76.3125 108.979 74.9099 111.476 72.4134C113.972 69.9168 115.375 66.5307 115.375 63C115.375 59.4693 113.972 56.0832 111.476 53.5866C108.979 51.0901 105.593 49.6875 102.062 49.6875Z" fill="#013C7D"/>
<path d="M0 5.3125C0 4.1356 0.467521 3.00691 1.29971 2.17471C2.13191 1.34252 3.2606 0.875 4.4375 0.875H13.3125C14.4894 0.875 15.6181 1.34252 16.4503 2.17471C17.2825 3.00691 17.75 4.1356 17.75 5.3125V27.5H137.562C138.739 27.5 139.868 27.9675 140.7 28.7997C141.532 29.6319 142 30.7606 142 31.9375V94.0625C142 95.2394 141.532 96.3681 140.7 97.2003C139.868 98.0325 138.739 98.5 137.562 98.5H17.75V120.688C17.75 121.864 17.2825 122.993 16.4503 123.825C15.6181 124.657 14.4894 125.125 13.3125 125.125C12.1356 125.125 11.0069 124.657 10.1747 123.825C9.34252 122.993 8.875 121.864 8.875 120.688V9.75H4.4375C3.2606 9.75 2.13191 9.28248 1.29971 8.45029C0.467521 7.61809 0 6.4894 0 5.3125ZM48.8125 40.8125C42.928 40.8125 37.2845 43.1501 33.1236 47.3111C28.9626 51.472 26.625 57.1155 26.625 63C26.625 68.8845 28.9626 74.528 33.1236 78.6889C37.2845 82.8499 42.928 85.1875 48.8125 85.1875C54.697 85.1875 60.3405 82.8499 64.5014 78.6889C68.6624 74.528 71 68.8845 71 63C71 57.1155 68.6624 51.472 64.5014 47.3111C60.3405 43.1501 54.697 40.8125 48.8125 40.8125ZM79.875 63C79.875 68.8845 82.2126 74.528 86.3736 78.6889C90.5345 82.8499 96.178 85.1875 102.062 85.1875C107.947 85.1875 113.59 82.8499 117.751 78.6889C121.912 74.528 124.25 68.8845 124.25 63C124.25 57.1155 121.912 51.472 117.751 47.3111C113.59 43.1501 107.947 40.8125 102.062 40.8125C96.178 40.8125 90.5345 43.1501 86.3736 47.3111C82.2126 51.472 79.875 57.1155 79.875 63Z" fill="#0178FA"/>
<path d="M26.625 102.938H57.6875V111.812C57.6875 112.989 57.22 114.118 56.3878 114.95C55.5556 115.782 54.4269 116.25 53.25 116.25H31.0625C29.8856 116.25 28.7569 115.782 27.9247 114.95C27.0925 114.118 26.625 112.989 26.625 111.812V102.938ZM62.125 111.812V102.938H97.625V111.812C97.625 112.989 97.1575 114.118 96.3253 114.95C95.4931 115.782 94.3644 116.25 93.1875 116.25H66.5625C65.3856 116.25 64.2569 115.782 63.4247 114.95C62.5925 114.118 62.125 112.989 62.125 111.812Z" fill="#0178FA"/>
</svg>
