<svg width="45" height="45" viewBox="0 0 45 45" fill="none" xmlns="http://www.w3.org/2000/svg">
<path d="M22.5 15.08C18.4143 15.08 15.08 18.4142 15.08 22.5C15.08 26.5857 18.4143 29.92 22.5 29.92C26.5858 29.92 29.92 26.5857 29.92 22.5C29.92 18.4142 26.5858 15.08 22.5 15.08ZM44.7545 22.5C44.7545 19.4273 44.7823 16.3825 44.6098 13.3154C44.4372 9.7529 43.6245 6.59118 41.0195 3.9861C38.4088 1.37546 35.2527 0.56833 31.6902 0.395772C28.6175 0.223213 25.5727 0.251045 22.5056 0.251045C19.4329 0.251045 16.3881 0.223213 13.321 0.395772C9.75852 0.56833 6.5968 1.38103 3.99172 3.9861C1.38107 6.59675 0.573946 9.7529 0.401387 13.3154C0.228828 16.3881 0.256661 19.4329 0.256661 22.5C0.256661 25.5671 0.228828 28.6175 0.401387 31.6845C0.573946 35.247 1.38664 38.4088 3.99172 41.0138C6.60236 43.6245 9.75852 44.4316 13.321 44.6042C16.3937 44.7767 19.4385 44.7489 22.5056 44.7489C25.5782 44.7489 28.6231 44.7767 31.6902 44.6042C35.2527 44.4316 38.4144 43.6189 41.0195 41.0138C43.6301 38.4032 44.4372 35.247 44.6098 31.6845C44.7879 28.6175 44.7545 25.5726 44.7545 22.5ZM22.5 33.9167C16.1821 33.9167 11.0833 28.8178 11.0833 22.5C11.0833 16.1821 16.1821 11.0833 22.5 11.0833C28.8179 11.0833 33.9167 16.1821 33.9167 22.5C33.9167 28.8178 28.8179 33.9167 22.5 33.9167ZM34.3843 13.282C32.9092 13.282 31.718 12.0908 31.718 10.6157C31.718 9.1406 32.9092 7.94939 34.3843 7.94939C35.8594 7.94939 37.0506 9.1406 37.0506 10.6157C37.051 10.966 36.9824 11.3129 36.8485 11.6366C36.7147 11.9603 36.5183 12.2544 36.2706 12.502C36.023 12.7497 35.7289 12.9461 35.4052 13.0799C35.0815 13.2138 34.7346 13.2824 34.3843 13.282Z" fill="#0178FA"/>
</svg>
