<svg width="112" height="105" viewBox="0 0 112 105" fill="none" xmlns="http://www.w3.org/2000/svg">
<path d="M80.5 14C81.4283 14 82.3185 14.3687 82.9749 15.0251C83.6313 15.6815 84 16.5717 84 17.5V66.5C84 67.4283 83.6313 68.3185 82.9749 68.9749C82.3185 69.6313 81.4283 70 80.5 70C79.5717 70 78.6815 69.6313 78.0251 68.9749C77.3687 68.3185 77 67.4283 77 66.5V17.5C77 16.5717 77.3687 15.6815 78.0251 15.0251C78.6815 14.3687 79.5717 14 80.5 14ZM94.5 14C95.4283 14 96.3185 14.3687 96.9749 15.0251C97.6313 15.6815 98 16.5717 98 17.5V66.5C98 67.4283 97.6313 68.3185 96.9749 68.9749C96.3185 69.6313 95.4283 70 94.5 70C93.5717 70 92.6815 69.6313 92.0251 68.9749C91.3687 68.3185 91 67.4283 91 66.5V17.5C91 16.5717 91.3687 15.6815 92.0251 15.0251C92.6815 14.3687 93.5717 14 94.5 14ZM24.5 70C23.5717 70 22.6815 70.3687 22.0251 71.0251C21.3687 71.6815 21 72.5717 21 73.5C21 74.4283 21.3687 75.3185 22.0251 75.9749C22.6815 76.6313 23.5717 77 24.5 77H66.5C67.4283 77 68.3185 76.6313 68.9749 75.9749C69.6313 75.3185 70 74.4283 70 73.5C70 72.5717 69.6313 71.6815 68.9749 71.0251C68.3185 70.3687 67.4283 70 66.5 70H24.5ZM24.5 84C23.5717 84 22.6815 84.3687 22.0251 85.0251C21.3687 85.6815 21 86.5717 21 87.5C21 88.4283 21.3687 89.3185 22.0251 89.9749C22.6815 90.6313 23.5717 91 24.5 91H66.5C67.4283 91 68.3185 90.6313 68.9749 89.9749C69.6313 89.3185 70 88.4283 70 87.5C70 86.5717 69.6313 85.6815 68.9749 85.0251C68.3185 84.3687 67.4283 84 66.5 84H24.5ZM35 17.5C35 19.433 33.3403 20.9302 31.644 21.8569C31.0637 22.1739 30.5262 22.5743 30.0503 23.0503C29.5743 23.5262 29.1739 24.0637 28.8569 24.644C27.9302 26.3403 26.433 28 24.5 28C23.5717 28 22.6815 28.3687 22.0251 29.0251C21.3687 29.6815 21 30.5717 21 31.5C21 32.4283 21.3687 33.3185 22.0251 33.9749C22.6815 34.6313 23.5717 35 24.5 35C26.433 35 28 36.567 28 38.5C28 40.433 26.433 42 24.5 42C23.5717 42 22.6815 42.3687 22.0251 43.0251C21.3687 43.6815 21 44.5717 21 45.5C21 46.4283 21.3687 47.3185 22.0251 47.9749C22.6815 48.6312 23.5717 49 24.5 49C26.433 49 27.9302 50.6597 28.8569 52.356C29.1739 52.9363 29.5743 53.4738 30.0503 53.9497C30.5262 54.4257 31.0637 54.8261 31.644 55.1431C33.3403 56.0698 35 57.567 35 59.5C35 60.4283 35.3687 61.3185 36.0251 61.9749C36.6815 62.6313 37.5717 63 38.5 63C39.4283 63 40.3185 62.6313 40.9749 61.9749C41.6313 61.3185 42 60.4283 42 59.5C42 57.567 43.567 56 45.5 56C47.433 56 49 57.567 49 59.5C49 60.4283 49.3687 61.3185 50.0251 61.9749C50.6815 62.6313 51.5717 63 52.5 63C53.4283 63 54.3185 62.6313 54.9749 61.9749C55.6312 61.3185 56 60.4283 56 59.5C56 57.567 57.6597 56.0698 59.356 55.1431C59.9363 54.8261 60.4738 54.4257 60.9497 53.9497C61.4257 53.4738 61.8261 52.9363 62.1431 52.356C63.0698 50.6597 64.567 49 66.5 49C67.4283 49 68.3185 48.6312 68.9749 47.9749C69.6313 47.3185 70 46.4283 70 45.5C70 44.5717 69.6313 43.6815 68.9749 43.0251C68.3185 42.3687 67.4283 42 66.5 42C64.567 42 63 40.433 63 38.5C63 36.567 64.567 35 66.5 35C67.4283 35 68.3185 34.6313 68.9749 33.9749C69.6313 33.3185 70 32.4283 70 31.5C70 30.5717 69.6313 29.6815 68.9749 29.0251C68.3185 28.3687 67.4283 28 66.5 28C64.567 28 63.0698 26.3403 62.1431 24.644C61.8261 24.0637 61.4257 23.5262 60.9497 23.0503C60.4738 22.5743 59.9363 22.1739 59.356 21.8569C57.6597 20.9302 56 19.433 56 17.5C56 16.5717 55.6312 15.6815 54.9749 15.0251C54.3185 14.3687 53.4283 14 52.5 14C51.5717 14 50.6815 14.3687 50.0251 15.0251C49.3687 15.6815 49 16.5717 49 17.5C49 19.433 47.433 21 45.5 21C43.567 21 42 19.433 42 17.5C42 16.5717 41.6313 15.6815 40.9749 15.0251C40.3185 14.3687 39.4283 14 38.5 14C37.5717 14 36.6815 14.3687 36.0251 15.0251C35.3687 15.6815 35 16.5717 35 17.5ZM35 38.5C35 32.701 39.701 28 45.5 28C51.299 28 56 32.701 56 38.5C56 44.299 51.299 49 45.5 49C39.701 49 35 44.299 35 38.5ZM80.5 77C79.5717 77 78.6815 77.3687 78.0251 78.0251C77.3687 78.6815 77 79.5717 77 80.5V87.5C77 88.4283 77.3687 89.3185 78.0251 89.9749C78.6815 90.6313 79.5717 91 80.5 91H94.5C95.4283 91 96.3185 90.6313 96.9749 89.9749C97.6313 89.3185 98 88.4283 98 87.5V80.5C98 79.5717 97.6313 78.6815 96.9749 78.0251C96.3185 77.3687 95.4283 77 94.5 77H80.5Z" fill="#013C7D"/>
<path d="M3.5 14C5.433 14 6.95691 12.4091 7.43521 10.5362C8.05196 8.12119 9.30814 5.89287 11.1005 4.10051C13.726 1.475 17.287 0 21 0L98 0C101.713 0 105.274 1.475 107.899 4.10051C110.525 6.72601 112 10.287 112 14V91C112 94.713 110.525 98.274 107.899 100.899C105.274 103.525 101.713 105 98 105H21C17.287 105 13.726 103.525 11.1005 100.899C8.475 98.274 7 94.713 7 91V80.5C7 78.567 5.433 77 3.5 77C2.57174 77 1.6815 76.6313 1.02513 75.9749C0.368749 75.3185 0 74.4283 0 73.5V66.5C0 65.5717 0.368749 64.6815 1.02513 64.0251C1.6815 63.3687 2.57174 63 3.5 63C5.433 63 7 61.433 7 59.5C7 57.567 5.433 56 3.5 56C2.57174 56 1.6815 55.6312 1.02513 54.9749C0.368749 54.3185 0 53.4283 0 52.5V45.5C0 44.5717 0.368749 43.6815 1.02513 43.0251C1.6815 42.3688 2.57174 42 3.5 42C5.433 42 7 40.433 7 38.5C7 36.567 5.433 35 3.5 35C2.57174 35 1.6815 34.6312 1.02513 33.9749C0.368749 33.3185 0 32.4283 0 31.5V17.5C0 16.5717 0.368749 15.6815 1.02513 15.0251C1.6815 14.3687 2.57174 14 3.5 14ZM14 91C14 92.8565 14.7375 94.637 16.0503 95.9497C17.363 97.2625 19.1435 98 21 98H98C99.8565 98 101.637 97.2625 102.95 95.9497C104.262 94.637 105 92.8565 105 91V14C105 12.1435 104.262 10.363 102.95 9.05025C101.637 7.7375 99.8565 7 98 7H21C19.1435 7 17.363 7.7375 16.0503 9.05025C14.7375 10.363 14 12.1435 14 14V91Z" fill="#0178FA"/>
</svg>
