<svg width="148" height="148" viewBox="0 0 148 148" fill="none" xmlns="http://www.w3.org/2000/svg">
<path d="M74 140.292C45.9417 140.292 23.125 117.475 23.125 89.4167V58.5834C23.125 30.525 45.9417 7.70837 74 7.70837C102.058 7.70837 124.875 30.525 124.875 58.5834V89.4167C124.875 117.475 102.058 140.292 74 140.292ZM74 16.9584C51.06 16.9584 32.375 35.6434 32.375 58.5834V89.4167C32.375 112.357 51.06 131.042 74 131.042C96.94 131.042 115.625 112.357 115.625 89.4167V58.5834C115.625 35.6434 96.94 16.9584 74 16.9584Z" fill="#0178FA"/>
<path d="M74 72.4583C66.3533 72.4583 60.125 66.23 60.125 58.5833V46.25C60.125 38.6033 66.3533 32.375 74 32.375C81.6467 32.375 87.875 38.6033 87.875 46.25V58.5833C87.875 66.23 81.6467 72.4583 74 72.4583ZM74 41.625C71.4717 41.625 69.375 43.7217 69.375 46.25V58.5833C69.375 61.1117 71.4717 63.2083 74 63.2083C76.5283 63.2083 78.625 61.1117 78.625 58.5833V46.25C78.625 43.7217 76.5283 41.625 74 41.625Z" fill="#013C7D"/>
<path d="M74 41.625C71.4717 41.625 69.375 39.5284 69.375 37V12.3334C69.375 9.80504 71.4717 7.70837 74 7.70837C76.5283 7.70837 78.625 9.80504 78.625 12.3334V37C78.625 39.5284 76.5283 41.625 74 41.625Z" fill="#013C7D"/>
</svg>
