<svg width="56" height="38" viewBox="0 0 56 38" fill="none" xmlns="http://www.w3.org/2000/svg">
<path d="M54.8348 5.86124C54.5177 4.73011 53.9 3.70604 53.0474 2.8979C52.1708 2.06491 51.0963 1.46905 49.9254 1.16657C45.5434 0.0115705 27.9874 0.0115707 27.9874 0.0115707C20.6685 -0.0716998 13.3514 0.294545 6.07744 1.10824C4.90655 1.43307 3.83409 2.04224 2.95544 2.88157C2.09211 3.71224 1.46677 4.73657 1.14011 5.8589C0.35539 10.0863 -0.0258785 14.3787 0.00144009 18.6782C-0.0265599 22.9739 0.353773 27.2649 1.14011 31.4976C1.45977 32.6152 2.08277 33.6349 2.94844 34.4586C3.81411 35.2822 4.89211 35.8772 6.07744 36.1922C10.5178 37.3449 27.9874 37.3449 27.9874 37.3449C35.3157 37.4283 42.6421 37.062 49.9254 36.2482C51.0963 35.9458 52.1708 35.3499 53.0474 34.5169C53.8997 33.7089 54.5167 32.6847 54.8324 31.5536C55.6376 27.3278 56.0292 23.0336 56.0014 18.7319C56.062 14.412 55.671 10.0976 54.8348 5.8589V5.86124ZM22.4061 26.6676V10.6912L37.0128 18.6806L22.4061 26.6676Z" fill="#0178FA"/>
</svg>
